<svg width="58" height="42" viewBox="0 0 58 42" fill="none" xmlns="http://www.w3.org/2000/svg">
<g clip-path="url(#clip0_1216_730)">
<path d="M8.98452 11.7331C8.10312 11.7331 7.34966 11.1726 7.22172 10.3879C7.09377 9.54097 7.77615 8.75627 8.74285 8.63172L21.4805 7.11214C22.4614 7.00004 23.3428 7.59791 23.485 8.44488C23.6271 9.29186 22.9305 10.0766 21.9638 10.2011L9.22619 11.7207C9.1409 11.7207 9.06982 11.7331 8.98452 11.7331Z" fill="#00539F"/>
<path d="M25.6458 36.2456C25.6458 36.2456 25.5605 36.2456 25.5036 36.2456L13.2067 35.4111C12.2542 35.3488 11.5292 34.6139 11.6145 33.7794C11.6856 32.9449 12.5243 32.3097 13.4768 32.3844L25.7737 33.2189C26.7262 33.2812 27.4513 34.0161 27.366 34.8506C27.2949 35.6477 26.5414 36.2581 25.6316 36.2581L25.6458 36.2456Z" fill="#00539F"/>
<path d="M53.6348 21.3275C53.8768 11.4515 46.2143 3.29764 36.5201 3.11527C26.8259 2.93291 18.7711 10.7911 18.529 20.6671C18.287 30.543 25.9495 38.6969 35.6437 38.8793C45.3379 39.0616 53.3928 31.2034 53.6348 21.3275Z" fill="white"/>
<path d="M36.18 3.11388C36.4928 3.11388 36.8055 3.11388 37.1183 3.13879C46.7995 3.66192 54.1776 12.0819 53.609 21.9342C53.0546 31.4751 45.2499 38.8737 35.981 38.8737C35.6682 38.8737 35.3555 38.8737 35.0427 38.8488C25.3616 38.3256 17.9834 29.9057 18.552 20.0534C19.1065 10.5125 26.9111 3.11388 36.18 3.11388ZM36.18 0C24.9493 0 15.6519 8.74377 14.998 19.8915C14.3298 31.4377 23.2149 41.3399 34.8153 41.9626C35.1991 41.9875 35.5829 42 35.9668 42C47.1975 42 56.4949 33.2562 57.1346 22.1085C57.817 10.5498 48.9319 0.660142 37.3315 0.0373665C36.9477 0.0124555 36.5639 0 36.18 0Z" fill="#00539F"/>
<path d="M35.91 25.2597C35.4693 25.2597 35.0428 25.1227 34.7159 24.8611L30.1525 21.2366C29.4275 20.6636 29.3706 19.6796 30.0246 19.0319C30.6785 18.3967 31.8016 18.3469 32.5408 18.9198L35.3272 21.1245L39.2935 13.701C39.7057 12.9163 40.7719 12.5924 41.6533 12.9536C42.549 13.3148 42.9328 14.249 42.5063 15.0213L37.5165 24.3629C37.2748 24.8113 36.8056 25.1351 36.2512 25.2348C36.1375 25.2597 36.0238 25.2597 35.8958 25.2597H35.91Z" fill="#8DC63F"/>
<path d="M22.1346 31.3755C21.6797 30.6032 20.6703 30.2794 19.8884 30.6655C19.1065 31.0516 18.5805 31.3132 19.0355 32.0854H17.9835L15.6094 28.0499L20.0022 27.2153L22.3763 31.2509L22.1204 31.3755H22.1346Z" fill="white"/>
<path d="M25.5606 29.2954L14.3441 28.7473L14.1309 14.6726L25.3616 15.2331L25.5606 29.2954Z" fill="white"/>
<path d="M0 12.8167L31.1049 9.12988L23.3287 15.8309L0 12.8167Z" fill="white"/>
<path d="M11.7993 32.2223L27.7214 33.3807L25.4752 29.1458L10.7473 29.0461L11.7993 32.2223Z" fill="white"/>
<path d="M3.07072 23.653C2.10402 23.653 1.30792 22.9679 1.2937 22.1085C1.2937 21.2491 2.07559 20.5391 3.0565 20.5391L15.8937 20.4146C16.8035 20.4146 17.6849 21.0996 17.6849 21.959C17.6849 22.8185 16.903 23.5284 15.9221 23.5284L3.08493 23.653H3.07072Z" fill="#8DC63F"/>
<path d="M18.353 28.4609C18.353 28.4609 18.3388 28.4609 18.3246 28.4609L7.56299 28.0748C7.16494 28.0623 6.8664 27.7758 6.88061 27.4271C6.89483 27.0783 7.2218 26.8043 7.61985 26.8292L18.3815 27.2153C18.7795 27.2278 19.0781 27.5143 19.0638 27.863C19.0496 28.1993 18.7369 28.4609 18.353 28.4609Z" fill="#00539F"/>
<path d="M6.85208 17.2383C6.48246 17.2383 6.16971 16.9768 6.14128 16.6529C6.11285 16.3042 6.41138 16.0177 6.80944 15.9928L17.2441 15.4572C17.6279 15.4323 17.9691 15.6939 17.9975 16.0426C18.026 16.3914 17.7274 16.6778 17.3294 16.7028L6.89473 17.2383C6.89473 17.2383 6.8663 17.2383 6.85208 17.2383Z" fill="#00539F"/>
<path d="M35.0428 38.8613C44.724 39.3845 53.0404 31.8115 53.609 21.9467C54.1777 12.082 46.7995 3.66204 37.1183 3.15137C37.1183 3.15137 49.6712 5.0446 49.202 21.5482C48.7329 38.6247 35.0286 38.8613 35.0286 38.8613H35.0428Z" fill="#ACD9F5"/>
<path d="M35.4408 37.1549C35.0427 37.1549 34.73 36.8809 34.73 36.5321V33.2065C34.73 32.8578 35.0427 32.5837 35.4408 32.5837C35.8388 32.5837 36.1516 32.8578 36.1516 33.2065V36.5321C36.1516 36.8809 35.8388 37.1549 35.4408 37.1549Z" fill="#00539F"/>
<path d="M47.4393 22.3327C47.0555 22.3327 46.7285 22.0587 46.7285 21.7099C46.7285 21.3612 47.0413 21.0872 47.4393 21.0872L51.5762 21.0623C51.9601 21.0623 52.287 21.3363 52.287 21.685C52.287 22.0338 51.9743 22.3078 51.5762 22.3078L47.4393 22.3327Z" fill="#00539F"/>
<path d="M35.4549 9.5285C35.0569 9.5285 34.7441 9.24203 34.7441 8.90573V5.48046C34.7584 5.13171 35.0711 4.85769 35.4692 4.85769C35.8814 4.82032 36.18 5.14416 36.18 5.48046V8.90573C36.1658 9.25448 35.853 9.5285 35.4549 9.5285Z" fill="#00539F"/>
<path d="M21.4806 22.5568C21.0967 22.5568 20.7698 22.2828 20.7698 21.9341C20.7698 21.5853 21.0825 21.3113 21.4806 21.3113L25.6459 21.2739C26.0297 21.2739 26.3567 21.5479 26.3567 21.8967C26.3567 22.2455 26.044 22.5195 25.6459 22.5195L21.4806 22.5568Z" fill="#00539F"/>
</g>
<defs>
<clipPath id="clip0_1216_730">
<rect width="57.1915" height="42" fill="white"/>
</clipPath>
</defs>
</svg>
