<svg width="73" height="48" viewBox="0 0 73 48" fill="none" xmlns="http://www.w3.org/2000/svg">
<g clip-path="url(#clip0_1174_629)">
<path d="M9.90871 24.9368C9.3639 24.9368 8.8191 24.7564 8.42751 24.4511C8.01891 24.1319 7.78055 23.6879 7.78055 23.2161L7.66138 7.4936C7.66138 6.5361 8.59777 5.75899 9.77251 5.74512C10.9473 5.74512 11.9007 6.50834 11.9007 7.46585L12.0028 21.4121L32.6715 21.0096C33.8122 20.968 34.8167 21.7451 34.8507 22.7026C34.8848 23.6601 33.9484 24.4511 32.7737 24.4789L9.94276 24.9229C9.94276 24.9229 9.90871 24.9229 9.89169 24.9229L9.90871 24.9368Z" fill="#8DC63F"/>
<path d="M56.1834 33.9566C56.3537 37.4119 58.9756 39.9097 62.0231 39.5351C65.0706 39.1604 67.4031 36.0381 67.2158 32.5828L56.1834 33.9566Z" fill="#00539F"/>
<path d="M61.4101 40.6731C60.1503 40.6731 58.9074 40.2984 57.8689 39.6046C56.0642 38.3973 54.9576 36.3574 54.8384 34.0122C54.8043 33.4571 55.2981 32.9714 55.9791 32.8882L67.0115 31.5144C67.403 31.4727 67.7776 31.556 68.067 31.7503C68.3565 31.9446 68.5437 32.236 68.5608 32.5551C68.7651 36.6211 65.9899 40.1735 62.2274 40.6315C61.955 40.6592 61.6826 40.687 61.4272 40.687L61.4101 40.6731ZM57.6476 34.8865C57.92 36.177 58.601 37.2594 59.5714 37.9116C60.2695 38.3695 61.0186 38.5638 61.8017 38.4667C63.8107 38.2169 65.4622 36.2325 65.8027 33.8734L57.6476 34.9003V34.8865Z" fill="#00539F"/>
<path d="M9.56818 37.4674L30.4752 38.3971L45.8831 35.0667C45.8831 35.0667 46.4279 31.3199 43.2442 30.2514C40.0604 29.1829 31.667 31.8334 31.667 31.8334L11.8666 30.7926L9.56818 37.4535" fill="#00539F"/>
<path d="M49.3392 7.65998L49.3903 4.66258L31.7351 3.35815L31.684 31.8334L48.8795 27.3512" fill="#00539F"/>
<path d="M31.6841 32.8881C31.4117 32.8881 31.1563 32.8187 30.9349 32.68C30.6115 32.4857 30.4072 32.1665 30.4072 31.8335L30.4582 3.3582C30.4582 3.06678 30.6115 2.78925 30.8839 2.58109C31.1563 2.37294 31.5138 2.28968 31.8713 2.31743L49.5265 3.62186C50.1905 3.67736 50.7013 4.1353 50.7013 4.6765L50.6672 7.67389C50.6672 8.25672 50.1565 8.74241 49.3733 8.71466C48.6583 8.71466 48.0964 8.24284 48.0964 7.66002V5.634L33.0461 4.52385L32.995 30.418L48.505 26.366C49.186 26.1856 49.9011 26.4909 50.1224 27.046C50.3438 27.601 49.9692 28.1839 49.2882 28.3643L32.0927 32.8604C31.9565 32.8881 31.8373 32.9159 31.7011 32.9159L31.6841 32.8881Z" fill="#00539F"/>
<path d="M49.833 35.2749C49.9351 31.4172 47.8921 30.0295 44.3168 29.7103C41.0479 29.4189 37.3194 30.0989 37.3194 30.0989C37.3194 30.0989 37.2854 20.4267 37.7791 15.209C38.2899 9.9913 41.3544 9.50561 41.3544 9.50561C41.3544 9.50561 52.0973 8.0763 57.0517 8.17344C61.7677 8.2567 62.8403 9.90804 64.3215 11.6288C65.5303 13.0442 66.8072 21.2871 66.8072 21.2871C66.8072 21.2871 66.688 28.3504 66.6029 31.5143" fill="white"/>
<path d="M14.7949 36.7596C14.8801 34.4283 13.6372 32.5966 12.0198 32.666C11.7644 32.666 11.4069 32.7215 11.1175 32.8047L9.73843 33.2488L9.87463 34.0537C9.32982 34.8308 8.98932 35.8715 8.93824 37.0233C8.88716 38.3277 9.27875 39.4656 9.89166 40.215L10.2322 41.3667H10.4705L12.0539 41.1586C13.4499 40.77 14.7268 38.8689 14.7949 36.7735V36.7596Z" fill="#00539F"/>
<path d="M10.2152 42.4494C9.58525 42.4494 9.04044 42.1024 8.88721 41.6029L8.59778 40.6315C7.88272 39.6601 7.50817 38.3696 7.55924 36.968C7.59329 35.844 7.91677 34.7477 8.44456 33.8318L8.37645 33.3739C8.29133 32.8605 8.64886 32.3748 9.22772 32.1944L10.6068 31.7503C11.2027 31.5838 11.7304 31.556 11.9347 31.5422C12.8371 31.5005 13.6713 31.7781 14.3864 32.347C15.5611 33.2768 16.2251 34.942 16.157 36.7876C16.0719 39.3132 14.4885 41.6306 12.4966 42.1857C12.4114 42.2135 12.3433 42.2273 12.2582 42.2273L10.2663 42.4355H10.2152V42.4494ZM11.2197 33.9567C11.2367 34.1788 11.1856 34.4008 11.0494 34.5951C10.5897 35.2612 10.3173 36.1354 10.2833 37.0513C10.2492 38.0504 10.5216 38.994 10.9983 39.5907C11.0835 39.7018 11.1516 39.8266 11.1856 39.9515L11.2367 40.1319L11.6623 40.0764C12.3604 39.7989 13.3478 38.439 13.3989 36.746C13.45 35.3861 12.9563 34.3592 12.4455 33.9567C12.2923 33.8318 12.1731 33.7902 12.0369 33.7902C11.8496 33.7902 11.6283 33.8318 11.4921 33.8735L11.1686 33.9706L11.2197 33.9567Z" fill="#00539F"/>
<path d="M13.1896 37.295C13.3801 34.9627 12.2265 33.001 10.6128 32.9134C8.99905 32.8258 7.5364 34.6455 7.34584 36.9778C7.15528 39.3102 8.30896 41.2719 9.92267 41.3595C11.5364 41.4471 12.999 39.6274 13.1896 37.295Z" fill="white"/>
<path d="M10.0109 42.4632C9.17665 42.4632 8.39349 42.1857 7.7295 41.6584C6.55476 40.7286 5.89077 39.0634 5.95888 37.2178C6.06103 34.2204 7.95083 31.9029 10.3344 31.7919C11.2197 31.7503 12.0709 32.0278 12.786 32.5968C13.9608 33.5265 14.6247 35.1917 14.5566 37.0374C14.4545 40.0209 12.5647 42.3522 10.1811 42.4632C10.1301 42.4632 10.079 42.4632 10.0279 42.4632H10.0109ZM10.4876 34.0122C9.89171 34.04 8.76805 35.3028 8.69994 37.2872C8.64887 38.6471 9.1426 39.674 9.65336 40.0764C9.80659 40.1874 9.94279 40.2568 10.062 40.2429C10.6578 40.2152 11.7815 38.9524 11.8496 36.968C11.9007 35.6081 11.407 34.5812 10.8962 34.1787C10.76 34.0677 10.6238 34.0122 10.5046 34.0122H10.4876Z" fill="#00539F"/>
<path d="M55.247 32.2914L59.2479 31.9584L71.7104 29.2385V32.9298L60.0822 36.7736L55.247 36.6071V32.2914Z" fill="#00539F"/>
<path d="M60.0822 37.4258C60.0822 37.4258 60.0652 37.4258 60.0482 37.4258L55.213 37.2593C54.7873 37.2454 54.4468 36.954 54.4468 36.607V32.2913C54.4468 31.9583 54.7533 31.6808 55.1619 31.6391L59.1628 31.3061L71.5062 28.5862C71.7445 28.5307 71.9999 28.5862 72.2042 28.6972C72.4085 28.8221 72.5107 29.0164 72.5107 29.2107V32.9019C72.5107 33.1656 72.3063 33.4015 72.0169 33.5125L60.3887 37.3564C60.2865 37.3841 60.1844 37.398 60.0822 37.398V37.4258ZM56.0472 35.9826L59.946 36.1075L70.9103 32.4717V30.0711L59.4523 32.5828L56.0472 32.8742V35.9826Z" fill="#00539F"/>
<path d="M46.4109 12.1561C41.2693 12.9749 41.3033 13.1553 41.3544 13.6687L41.116 19.7884C41.116 19.9688 41.2012 20.1492 41.3544 20.288C41.5246 20.4129 41.7289 20.4822 41.9673 20.4684L45.8661 20.2186L50.2586 23.1882C50.4118 23.2854 50.5821 23.3409 50.7694 23.3409C50.8885 23.3409 50.9907 23.327 51.1099 23.2854C51.3823 23.1743 51.5695 22.9523 51.5695 22.7025C51.5866 21.8838 51.6887 14.6956 48.7604 12.6696C48.0794 12.1978 47.2622 12.0174 46.4109 12.1561Z" fill="#ACD9F5"/>
<path d="M65.9559 11.7815C65.8878 11.6705 65.7856 11.5734 65.6494 11.504C62.5338 9.90817 57.0006 10.1163 54.8043 10.4632C54.0722 10.5881 53.5615 10.8379 53.3061 11.2403C53.0677 11.6011 53.1359 11.9897 53.221 12.1423C53.221 12.184 54.6 15.9446 54.7703 20.2464C54.7703 20.4684 54.9235 20.6627 55.1448 20.7737L58.7712 22.6332C58.8904 22.7026 59.0436 22.7304 59.1968 22.7304C59.2649 22.7304 59.316 22.7304 59.3841 22.7165L67.5733 21.4537C67.9649 21.3704 68.2202 20.7321 68.1862 20.3991C67.2498 14.0712 65.9899 11.8509 65.9389 11.7538L65.9559 11.7815Z" fill="#ACD9F5"/>
<path d="M47.7899 36.9262C46.8706 36.9262 46.0534 36.4544 45.7639 35.7328C45.3723 34.7475 44.6232 32.9158 44.2487 32.6799C44.0784 32.5966 43.2442 32.5411 42.5802 32.4995H42.3759C39.9753 32.3191 38.5282 32.777 36.349 33.4848C36.2298 33.5264 36.0425 33.568 35.9063 33.5958L33.659 33.9427C33.5228 33.9566 33.4036 33.9704 33.2674 33.9704H31.4457L2.04303 33.2211C0.902336 33.1933 -0.0170288 32.4301 -0.0170288 31.4865V8.06237C-0.0170288 7.21589 0.732083 6.49429 1.77062 6.35552L30.7817 2.42838V1.70678C30.8157 1.22109 31.0711 0.763155 31.5138 0.443987C31.9564 0.12482 32.5523 -0.0278253 33.1312 0.0138052L51.212 1.48475C52.3016 1.56801 53.1359 2.33124 53.1359 3.23323V4.84295C55.3662 4.70418 57.1879 4.66255 58.8734 4.85682C64.696 5.52291 66.1091 6.85509 67.9308 8.99212L68.0841 9.17252C69.5823 10.9071 70.757 17.7762 71.1997 20.6487C71.1997 20.7181 71.1997 20.7874 71.1997 20.8568C71.1997 20.9262 71.1997 28.0312 71.1316 31.5142C71.1316 31.9444 70.9103 32.3607 70.5527 32.666C70.1101 33.0546 69.8036 33.1933 64.015 35.0806C63.0276 35.3998 62.2274 35.6634 61.9209 35.7744L61.4102 35.9965C61.1377 36.1075 60.8143 36.1769 60.5078 36.1907H60.2354L47.9772 36.9262C47.9261 36.9262 47.8751 36.9262 47.824 36.9262H47.7899ZM41.4565 28.9748C41.8651 28.9748 42.2908 28.9748 42.7334 29.0164H42.9377C46.8535 29.2939 47.807 29.9878 49.2711 33.3599L59.8438 32.7354L60.0652 32.6383C60.5248 32.4717 61.3761 32.1942 62.4146 31.8612C63.5724 31.4865 65.6494 30.8204 66.8753 30.3902C66.9263 27.0043 66.9263 21.7866 66.9263 20.9678C66.2964 16.888 65.1898 12.0034 64.5428 11.143L64.3896 10.9626C63.0276 9.3668 62.5168 8.77009 58.2435 8.2844C56.3026 8.06237 53.7147 8.24277 50.2756 8.52031C49.2541 8.60357 48.2837 8.07625 48.0113 7.25752C47.7729 6.5498 48.0964 5.80045 48.8115 5.38414V4.75969L34.9699 3.63566V3.9132C34.9359 4.74581 34.1867 5.45353 33.1823 5.5923L4.25631 9.53332V29.7935L31.5308 30.4874H33.0801L34.9359 30.1959C36.9448 29.5576 38.8517 28.9748 41.4736 28.9748H41.4565Z" fill="#00539F"/>
<path d="M39.1411 42.1717L40.9628 41.2142C39.771 40.1873 38.9708 38.5914 38.9368 36.7181C38.9027 35.0945 39.4305 33.5819 40.3158 32.4301L39.9924 31.2783L40.9798 30.9453C41.4906 30.8204 42.1205 30.7371 42.5972 30.6955C45.5085 30.5012 47.9432 33.0407 48.0283 36.3711C48.0964 39.3685 45.8661 42.4076 43.3804 43.0459L40.9288 43.2679" fill="#00539F"/>
<path d="M40.9287 44.3781C40.2648 44.3781 39.6859 43.9618 39.6008 43.4068C39.6008 43.3374 39.6008 43.268 39.6008 43.1986C39.0389 43.3651 38.375 43.1986 38.0344 42.7684C37.6429 42.2689 37.8131 41.5889 38.426 41.2697L39.0389 40.9367C38.1536 39.7572 37.6429 38.3001 37.5918 36.7459C37.5577 35.1362 38.0174 33.5681 38.8857 32.2637L38.6814 31.5421C38.5452 31.0286 38.8687 30.5013 39.4646 30.2931L40.452 29.9601C41.116 29.7936 41.8311 29.6826 42.478 29.6409C43.9422 29.5438 45.3894 29.974 46.5641 30.8343C48.2666 32.0833 49.2882 34.1093 49.3392 36.3851C49.4244 39.771 46.8706 43.3096 43.772 44.1145C43.6868 44.1422 43.6017 44.1561 43.5166 44.1561L41.0649 44.3781C41.0649 44.3781 40.9628 44.3781 40.9117 44.3781H40.9287ZM41.5417 31.9584L41.6098 32.1943C41.6949 32.4718 41.6268 32.7771 41.4395 33.013C40.6393 34.0399 40.2307 35.3443 40.2648 36.7043C40.2988 38.2168 40.9117 39.5906 41.9332 40.4788C42.2056 40.7147 42.3418 41.0338 42.2908 41.353C42.2397 41.6722 42.0184 41.9636 41.6949 42.1301L43.091 42.0052C44.8616 41.464 46.7684 39.0217 46.7003 36.4267C46.6663 34.7754 45.9512 33.2905 44.8105 32.4441C44.3678 32.1249 43.6358 31.7363 42.7164 31.8057C42.3248 31.8335 41.8992 31.889 41.5587 31.9722L41.5417 31.9584Z" fill="#00539F"/>
<path d="M45.9304 37.1229C46.0999 33.6386 43.9751 30.7409 41.1847 30.6507C38.3942 30.5605 35.9948 33.3121 35.8253 36.7965C35.6559 40.2808 37.7806 43.1786 40.571 43.2687C43.3615 43.3589 45.7609 40.6073 45.9304 37.1229Z" fill="white"/>
<path d="M40.6734 44.3921C39.5497 44.3921 38.4771 44.0591 37.5067 43.4207C35.736 42.2412 34.5953 40.0903 34.4591 37.6618C34.2378 33.5821 36.8086 30.0435 40.3158 29.5994C41.6949 29.419 43.0569 29.7382 44.2316 30.5153C46.0023 31.6948 47.143 33.8457 47.2792 36.2742C47.5005 40.354 44.9297 43.8926 41.4225 44.3366C41.1671 44.3644 40.9287 44.3782 40.6734 44.3782V44.3921ZM41.0479 31.7781C40.9458 31.7781 40.8436 31.7781 40.7415 31.7919C38.9198 32.0278 37.0129 34.4563 37.1832 37.5647C37.2853 39.3409 38.0685 40.9229 39.2262 41.7C39.7881 42.0747 40.3839 42.2273 40.9968 42.1441C42.8185 41.9082 44.7254 39.4797 44.5551 36.3713C44.453 34.5951 43.6698 33.0131 42.5121 32.236C42.0524 31.9307 41.5587 31.7642 41.0649 31.7642L41.0479 31.7781Z" fill="#00539F"/>
<path d="M42.9533 37.0266C43.0233 35.5869 42.1508 34.3898 41.0046 34.3527C39.8584 34.3157 38.8724 35.4528 38.8024 36.8925C38.7324 38.3322 39.6048 39.5293 40.7511 39.5663C41.8973 39.6034 42.8833 38.4663 42.9533 37.0266Z" fill="#ACD9F5"/>
<mask id="mask0_1174_629" style="mask-type:luminance" maskUnits="userSpaceOnUse" x="41" y="10" width="28" height="14">
<path d="M46.4109 12.1562C41.2693 12.9749 41.3033 13.1553 41.3544 13.6688L41.116 19.7884C41.116 19.9688 41.2012 20.1492 41.3544 20.288C41.5246 20.4129 41.7289 20.4823 41.9673 20.4684L45.8661 20.2186L50.2586 23.1883C50.4118 23.2854 50.5821 23.3409 50.7694 23.3409C50.8885 23.3409 50.9907 23.327 51.1099 23.2854C51.3823 23.1744 51.5695 22.9524 51.5695 22.7026C51.5866 21.8838 51.6887 14.6956 48.7604 12.6696C48.0794 12.1978 47.2622 12.0174 46.4109 12.1562ZM65.9559 11.7676C65.8878 11.6566 65.7856 11.5595 65.6494 11.4901C62.5338 9.89425 57.0006 10.1024 54.8043 10.4493C54.0723 10.5742 53.5615 10.824 53.3061 11.2264C53.0678 11.5872 53.1359 11.9758 53.221 12.1284C53.221 12.1701 54.6 15.9307 54.7703 20.2325C54.7703 20.4545 54.9235 20.6488 55.1449 20.7598L58.7712 22.6193C58.8904 22.6887 59.0436 22.7165 59.1969 22.7165C59.265 22.7165 59.316 22.7165 59.3841 22.7026L67.6584 21.4398C68.05 21.3565 68.2203 20.7182 68.1692 20.3851C67.2328 14.0573 65.9729 11.837 65.9219 11.7399L65.9559 11.7676Z" fill="white"/>
</mask>
<g mask="url(#mask0_1174_629)">
<path fill-rule="evenodd" clip-rule="evenodd" d="M52.3016 24.1457C52.4378 24.5759 52.8464 24.7563 53.1359 25.0477C53.5104 25.4362 53.885 25.8109 54.3276 26.1301C54.3957 26.1717 54.4468 26.255 54.4979 26.2966C54.7022 26.4215 54.8895 26.5741 55.0938 26.6851C55.1959 26.7407 55.3832 26.7684 55.4513 26.8378C55.5024 26.8794 55.4513 26.9488 55.5194 26.9766C55.5875 26.9766 55.6726 26.9904 55.7407 27.0043C55.8258 27.0459 55.8939 27.1292 55.9791 27.1708C56.1664 27.268 56.4217 27.3096 56.6431 27.3374C56.8133 27.3651 57.29 27.3096 57.3581 27.4067C57.2049 27.5733 57.2049 27.7953 57.1198 28.0312C56.9665 28.4753 56.8814 28.8916 56.9325 29.516L56.9665 29.9046C57.0006 30.0711 57.0517 30.2237 57.0857 30.3903C57.0857 30.5013 57.0857 30.6123 57.0857 30.7233C57.1538 30.9453 57.2219 31.6808 57.1879 31.9028C57.1538 32.1387 57.1879 32.4163 57.1538 32.6522C57.1027 32.8881 57.2389 33.1795 57.1879 33.3877L57.2389 34.026C57.2219 34.137 57.2389 34.2758 57.2389 34.4145C57.2049 34.5533 57.1708 34.706 57.1879 34.8725C57.2219 35.1916 57.4773 35.608 57.3922 35.9965C57.3581 36.2047 57.273 36.3989 57.2219 36.6071C57.0857 37.0928 57.0857 37.6201 56.9665 38.0919C56.9665 38.3139 56.9495 38.5221 56.9325 38.7441C56.8303 39.1604 56.7112 39.771 56.8984 40.2983C56.8984 40.4093 56.9325 40.5204 56.9495 40.6314C57.0006 40.7424 57.1198 40.8395 57.1708 40.9089C57.273 41.0893 57.0346 41.5195 57.0006 41.6583C56.8984 42.0746 57.307 42.477 57.4092 42.7129C57.4092 42.7407 57.4603 43.1153 57.4603 43.1292C57.4603 43.1708 57.3922 43.1986 57.4092 43.2541C57.4773 43.49 57.4773 43.8092 57.5624 44.0451C57.5624 44.1422 57.5624 44.2394 57.5624 44.3365C57.5965 44.392 57.6305 44.3781 57.6816 44.4475C58.0562 44.6001 59.0096 44.5446 59.4352 44.392C59.6055 44.3226 59.7927 44.3504 59.9119 44.2532C59.9289 44.2255 59.9119 44.1977 59.9119 44.1422C59.7927 44.0173 59.8438 43.6843 59.7757 43.5178C59.7417 43.4345 59.6736 43.3096 59.6565 43.2263C59.6055 43.1014 59.6055 42.8517 59.5203 42.7129C59.6565 42.4631 59.8608 42.255 59.9289 41.9497C59.963 41.7693 59.8268 41.6305 59.8438 41.4779C59.8438 41.4085 59.8949 41.2697 59.8608 41.1864C59.7757 40.9228 59.6906 40.6869 59.6055 40.4648C59.5033 40.2012 59.6395 39.9098 59.7076 39.7294C59.7927 39.4657 59.8098 39.2021 59.9119 38.9384C59.997 38.7025 60.0992 38.4388 60.1673 38.2029C60.1673 37.5091 60.1673 36.8291 60.1673 36.1353C60.2524 35.7328 60.4056 35.5247 60.5078 35.1778C60.5078 35.1084 60.5078 35.0251 60.5078 34.9557C60.5589 34.7198 60.5418 34.4839 60.5929 34.2341C60.6951 33.8733 60.7802 33.5126 60.8823 33.1518C60.8823 33.0824 60.8823 33.0269 60.8823 32.9575C60.9675 32.5967 61.0186 32.2081 61.1377 31.8751H61.1548C61.1548 31.8751 61.1548 31.9445 61.1548 31.9722C61.2739 32.1249 61.2399 32.3746 61.308 32.555C61.3761 32.7632 61.4272 32.9991 61.5293 33.2073C61.5804 33.3183 61.6825 33.457 61.7166 33.5681C61.7166 33.6097 61.7166 33.7901 61.6996 33.8317C61.6996 34.0954 61.7336 34.359 61.7506 34.6366C61.9039 35.0806 62.1763 35.4276 62.3465 35.8994C62.4317 36.1353 62.3465 36.3989 62.3125 36.5793C62.2614 36.8291 62.3636 37.3148 62.4487 37.5091C62.4827 37.5785 62.5508 37.6756 62.5849 37.745C62.7211 38.0225 62.7551 38.2862 62.8913 38.5498C62.9765 38.7025 63.1127 38.7441 63.1467 38.9523C63.0616 39.0355 62.9594 39.2576 62.9424 39.3825C62.9254 39.4935 63.0105 39.6184 63.0446 39.6877C63.1808 39.9792 63.2659 40.2567 63.4532 40.5065C63.5213 40.5897 63.6404 40.7146 63.6745 40.8118C63.6915 40.8673 63.6404 41.0199 63.6745 41.1032C63.7767 41.4085 63.8107 41.7693 63.8277 42.0746C63.8788 42.1023 63.8958 42.1439 63.9299 42.1717C63.981 42.1995 64.032 42.1717 64.1001 42.1717C64.1342 42.1856 64.1682 42.2411 64.2363 42.255C64.3385 42.255 64.3896 42.1717 64.4747 42.1717C64.5939 42.1717 64.5258 42.2827 64.713 42.2827C64.8322 42.3382 64.9514 42.1995 65.0195 42.2272C65.0535 42.2688 65.0365 42.2688 65.1046 42.2966C65.326 42.3937 65.4792 42.1162 65.7346 42.1578C65.9389 42.1856 66.0921 42.3243 66.2623 42.3937C66.2623 42.4492 66.2623 42.4909 66.2964 42.5325C66.3815 42.5603 66.4326 42.5603 66.5347 42.5325C66.5347 42.588 66.5007 42.588 66.5688 42.6158C66.6539 42.6713 66.722 42.6158 66.8072 42.588V42.6296C66.8072 42.6296 66.8072 42.6574 66.8072 42.699C66.9434 42.699 67.0285 42.6713 67.1477 42.6435V42.699C67.1477 42.699 67.1477 42.699 67.1647 42.7129C67.2839 42.7823 67.4371 42.6713 67.5563 42.6435C67.6414 42.7268 67.9138 42.6296 68.0159 42.6019C68.3735 42.5186 68.7821 42.3521 68.9353 42.1162C68.8672 42.0607 68.8672 41.9774 68.8161 41.908C68.731 41.797 68.4927 41.5195 68.3735 41.464C68.2202 41.3946 67.9649 41.4362 67.7776 41.3946C67.6584 41.3668 66.9944 41.0893 66.9263 41.0199C66.8923 40.9783 66.9263 40.9228 66.8752 40.8673C66.8242 40.784 66.688 40.7008 66.6369 40.6175C66.5858 40.5481 66.5858 40.451 66.5347 40.3816C66.5007 40.3538 66.4837 40.34 66.4496 40.3122C66.3985 39.9514 66.3304 39.5629 66.1772 39.2437C66.041 38.9662 65.8708 38.6886 65.6835 38.4666C65.6154 38.3833 65.4621 38.3001 65.4111 38.2168L65.377 37.7866C65.377 37.7866 65.3941 37.5646 65.377 37.4952C65.3089 37.2871 65.2578 37.1205 65.1727 36.8985C65.0365 36.5516 65.0706 36.3434 65.1387 35.9688C65.1897 35.6635 65.0365 35.2194 64.9684 35.0251V34.817C64.8833 34.6088 64.6109 34.1648 64.662 33.915C64.713 33.7485 64.7641 33.5819 64.8322 33.4154C64.9003 33.1379 64.8833 32.8465 64.9344 32.5689C64.9344 32.3746 64.9344 32.1804 64.9173 32C64.9684 31.6808 65.0025 31.2229 64.8833 30.8898C64.7982 30.6539 64.9854 30.4735 64.8833 30.2099C64.8152 30.0295 64.7641 29.8074 64.696 29.6409C64.679 29.5715 64.696 29.4605 64.696 29.4189C64.713 29.3079 64.662 29.183 64.6279 29.1136C64.5939 28.9887 64.662 28.8361 64.679 28.7389C64.713 28.5863 64.679 28.1006 64.6279 27.9341C64.5087 27.6149 64.2874 27.3929 64.1342 27.1292C64.0491 27.0043 64.0491 26.8933 63.9299 26.81C63.9639 26.6574 63.9639 26.4492 63.9299 26.2272C64.0831 26.1717 64.3896 25.908 64.4917 25.797C64.713 25.9219 65.3941 25.7554 65.6154 25.6999C65.8537 25.6444 66.0921 25.7831 66.2623 25.6583C66.3985 25.5611 66.4156 25.4085 66.4666 25.242C66.4837 25.1726 66.5518 25.0893 66.5688 25.0199C66.6028 24.8812 66.4666 24.5204 66.4156 24.4232C66.3985 24.3261 66.3815 24.2428 66.3475 24.1457C66.3475 24.1179 66.4326 24.1457 66.3985 24.0485C66.3645 23.9098 66.2623 23.7849 66.2113 23.6739C66.1261 23.5212 66.1261 23.3686 66.058 23.2159C65.6324 22.3139 65.2408 21.2593 64.679 20.4683C64.5258 20.2463 64.4236 19.8855 64.1682 19.7467C63.6064 19.4414 62.8913 19.2888 62.2955 19.0113C62.1763 18.9557 61.7677 18.8586 61.6996 18.7892C61.6315 18.7337 61.6315 18.6227 61.5804 18.5533C61.4953 18.4562 61.4612 18.359 61.3931 18.2203C61.3591 18.1509 61.2399 18.0815 61.2058 18.026C61.1377 17.9011 61.2399 17.346 61.2739 17.2489C61.308 17.1379 61.2739 16.9436 61.3591 16.8742C61.4101 16.902 61.4612 16.8742 61.5293 16.8742C61.6485 16.6522 61.7166 16.2081 61.6144 15.889C61.5804 15.889 61.5463 15.889 61.4953 15.889C61.5293 15.3616 61.4101 14.5984 61.1207 14.2792C60.9845 14.1266 60.678 14.085 60.4397 14.0156C60.2354 13.9601 59.98 13.8907 59.7246 13.8629C59.316 13.8213 58.8734 14.1821 58.6691 14.3209C58.5669 14.3903 58.4307 14.4458 58.3626 14.5429C58.1583 14.8204 58.2434 15.6114 58.2775 16.0694H58.2605C58.2605 16.0694 58.1413 16.0694 58.1243 16.1249C57.954 16.333 58.2264 16.9852 58.4137 17.0269C58.4818 17.0546 58.5499 17.0269 58.601 16.9991C58.6691 17.3322 58.8393 17.5958 58.8904 17.9982C58.8053 17.9982 58.7712 17.9982 58.7372 18.0399C58.618 18.1509 58.4648 18.3035 58.3796 18.4284C58.3286 18.4839 58.3115 18.6227 58.2605 18.6643C58.2094 18.706 58.1072 18.6782 58.0391 18.706C57.9881 18.7337 57.92 18.7892 57.8689 18.817C57.7157 18.8864 57.5794 18.8864 57.4262 18.9419C57.0176 19.0945 56.575 19.3165 56.2004 19.4831C56.0812 19.5386 55.8088 19.5524 55.7577 19.5941C55.7407 19.608 55.6045 19.7606 55.5875 19.7745C55.5364 19.8577 55.5364 19.9688 55.4683 20.0243C55.0086 20.3712 54.617 20.8152 54.2765 21.2454C54.0893 21.4813 53.7488 21.7311 53.4934 21.9254C53.238 22.1197 53.0337 22.425 52.7953 22.647C52.7953 22.7164 52.8464 22.758 52.8294 22.7858C52.7443 22.9384 52.6081 23.0772 52.5229 23.2298C52.4038 23.4102 52.3867 23.6045 52.3186 23.8404C52.3016 23.9098 52.2505 24.0763 52.2846 24.1734L52.3016 24.1457ZM64.0831 23.66C64.1682 23.7294 64.2534 23.7988 64.3385 23.8681C64.3896 23.9653 64.4406 24.0763 64.4917 24.1734C64.3896 24.1873 64.3896 24.2151 64.2874 24.2428C64.2874 24.2428 64.2874 24.2428 64.2704 24.2289C64.2534 24.0902 64.032 23.7571 64.0831 23.66ZM55.5875 25.4917H55.6215C55.6215 25.4917 55.7067 25.5334 55.7237 25.5889H55.7067C55.7067 25.5889 55.7067 25.5889 55.7067 25.575C55.6726 25.5472 55.6045 25.5334 55.5705 25.4917H55.5875ZM54.2425 23.8681C54.2425 23.8681 54.2425 23.8681 54.2595 23.8265C54.583 23.7988 54.6511 23.5212 54.8384 23.3963C55.1108 23.2021 55.4513 23.091 55.7577 22.9106C55.8258 22.869 55.911 22.7858 55.9961 22.758L56.5069 22.7302C56.5069 22.7302 56.592 22.7996 56.6431 22.8274C56.6771 23.3686 56.9495 23.8265 57.1198 24.2428C57.2389 24.5342 57.1538 24.8534 57.273 25.1448C57.3581 25.353 57.5114 25.4501 57.5624 25.686C57.4943 25.7554 57.4943 25.8942 57.3922 25.9635C57.3411 25.9913 56.8474 26.1856 56.7963 26.1717C56.7622 26.1717 56.7282 26.1301 56.6941 26.1301C56.6431 26.1301 56.6431 26.1717 56.609 26.1717L56.5239 26.1023C56.5239 26.1023 56.4898 26.1439 56.4388 26.1301C56.3877 26.1162 56.2685 25.9635 56.2345 25.9358C56.2004 25.9358 56.1493 25.9219 56.1153 25.908C56.0812 25.8803 56.0812 25.8387 56.0472 25.8109C55.9961 25.7554 55.8939 25.7276 55.8258 25.686C55.7918 25.6583 55.7918 25.6028 55.7577 25.5611C55.7067 25.5056 55.6045 25.4917 55.5194 25.4501C55.4002 25.3946 55.3321 25.3113 55.247 25.2142H55.264C55.264 25.2142 55.264 25.2281 55.3321 25.242C55.3321 25.242 55.264 25.1864 55.23 25.1726C55.23 25.1726 55.1619 25.1032 55.1108 25.0338C55.1108 25.0338 55.1108 25.0338 55.1278 25.0477C55.1448 25.0754 55.1448 25.006 55.1448 25.006C54.9746 24.9367 54.9746 24.7701 54.8724 24.6314C54.7022 24.4232 54.2936 24.0763 54.2084 23.8543L54.2425 23.8681ZM55.247 25.1587C55.247 25.1587 55.247 25.1587 55.247 25.1309H55.2129C55.2129 25.1309 55.2129 25.1309 55.23 25.1448L55.247 25.1587Z" fill="#00539F"/>
<path fill-rule="evenodd" clip-rule="evenodd" d="M42.7675 19.9688C42.7675 19.9688 42.6653 20.0243 42.5462 20.0937C42.4781 20.1353 42.41 20.1908 42.3589 20.2185C42.2227 20.3018 42.0354 20.3712 41.9843 20.3851C41.9332 20.4128 41.8822 20.4545 41.8651 20.4822C41.8651 20.51 41.797 20.5516 41.797 20.5793C41.78 20.621 41.746 20.6626 41.763 20.7875C41.6438 20.954 41.5927 21.1205 41.5927 21.1622C41.5927 21.2038 41.5757 21.3565 41.5417 21.4536C41.5246 21.5507 41.4906 21.7034 41.4906 21.7866C41.4906 21.8699 41.4565 21.9948 41.4565 21.9948C41.4565 21.9948 41.3714 22.2168 41.3203 22.5499C41.2522 22.8829 41.3203 23.1188 41.3203 23.1188C41.3203 23.1188 41.2012 23.3686 41.1671 23.4935C41.1331 23.6184 41.1331 23.6461 41.1331 23.6878C41.1331 23.7155 41.082 23.7849 41.0479 23.8682C41.0309 23.9237 41.0139 23.9931 40.9798 24.0347C40.9288 24.1596 40.9798 24.2151 40.9798 24.2428C40.9798 24.2706 40.9798 24.2706 40.9798 24.2845C40.9798 24.2983 40.9117 24.3816 40.9117 24.451C40.8607 24.451 40.8096 24.4787 40.7585 24.5065C40.7245 24.5481 40.7415 24.5898 40.8266 24.6175C40.8266 24.6591 40.7926 24.7285 40.7755 24.784C40.7755 24.8257 40.7415 24.9922 40.7415 25.0199C40.7415 25.0477 40.7415 25.0616 40.7415 25.0616C40.7415 25.0616 40.7245 25.131 40.7415 25.242C40.7415 25.353 40.8266 25.464 40.8607 25.5195C40.8947 25.575 40.9969 25.797 41.0139 25.8525C41.0309 25.9081 41.0309 25.9913 41.065 26.0607C41.099 26.1301 41.2863 26.255 41.3203 26.2827C41.3374 26.3105 41.4055 26.366 41.4225 26.3937C41.4225 26.4215 41.5246 26.5186 41.6608 26.5741C41.78 26.6296 41.9333 26.6158 42.0524 26.5603C42.1886 26.5048 42.2567 26.4076 42.2908 26.3799C42.3248 26.3521 42.3589 26.3105 42.461 26.2689C42.5632 26.2272 42.7505 26.0607 42.7505 26.0607V26.5603C42.7505 26.5603 42.7505 29.3495 42.7505 29.405C42.7505 29.4605 42.7505 32.68 42.7505 32.8048C42.7505 32.8742 42.7505 35.3721 42.7505 35.5108C42.7505 35.6496 42.7334 38.4527 42.7164 38.5637C42.7164 38.6748 42.6824 40.7146 42.6824 40.9783C42.6824 41.242 42.6313 43.1153 42.6313 43.1153C42.6313 43.1153 42.5291 43.1153 42.5121 43.1153C42.5121 43.1153 42.444 43.1153 42.41 43.1153C42.3759 43.1153 42.2908 43.1015 42.2567 43.1153H42.1376C41.9503 43.0737 41.7289 43.1708 41.6438 43.268C41.5587 43.3651 40.9628 43.9618 40.9117 44.0312C40.8436 44.1006 40.2477 44.7251 40.0775 44.9055C39.9072 45.0859 39.6689 45.3079 39.6689 45.3079C39.6689 45.3079 38.426 45.1414 38.3069 45.1275C38.1877 45.1136 38.1026 45.0997 37.9323 45.1275C37.7791 45.1691 37.6429 45.2663 37.5407 45.3773C37.4386 45.4883 37.3364 45.5993 37.3364 45.7381C37.3364 45.8768 37.4045 45.9462 37.5067 46.0434C37.5918 46.1405 37.6429 46.1682 37.6429 46.1682C37.6429 46.1682 37.6259 46.2654 37.6429 46.3209C37.6599 46.3764 37.6088 46.3903 37.6088 46.418C37.6088 46.4458 37.6769 46.4735 37.728 46.4735C37.7791 46.4735 37.8983 46.5013 37.9153 46.5013C37.9323 46.5013 38.2388 46.529 38.3579 46.5429C38.4771 46.5568 38.4771 46.5429 38.5622 46.5429C38.6474 46.5429 38.6303 46.5984 38.6474 46.5984C38.6474 46.5984 38.6984 46.5984 38.7495 46.5984C38.7836 46.5984 38.9027 46.5984 38.9709 46.5984C38.9709 46.5984 47.2622 47.8196 47.3984 47.8335C47.5346 47.8335 47.858 47.8751 47.9432 47.8751C48.0283 47.8751 48.1134 47.889 48.2496 47.9306C48.3858 47.9722 48.6582 47.9306 48.7434 47.9306C48.8285 47.9306 48.9647 47.9306 48.9987 47.9306C49.0328 47.9306 49.2371 47.9306 49.2711 47.9306C49.3052 47.9306 49.2711 47.9167 49.2711 47.9167C49.2711 47.9167 49.3222 47.9167 49.3392 47.889C49.3563 47.8751 49.3903 47.8612 49.4244 47.8612C49.4584 47.8612 49.5946 47.8612 49.6287 47.8473C49.6627 47.8473 49.6287 47.8196 49.6287 47.8196C49.6287 47.8196 49.6798 47.8196 49.7138 47.8057C49.7308 47.8057 49.6627 47.7918 49.6457 47.778C49.6287 47.778 49.6457 47.7502 49.6457 47.7502C49.6627 47.7502 49.7478 47.7502 49.7478 47.7502L49.7138 47.6947C49.7138 47.6947 49.7478 47.6808 49.7478 47.6531C49.7478 47.6253 49.6457 47.5976 49.6968 47.5976C49.7479 47.5976 49.6968 47.5559 49.6968 47.5421C49.6968 47.5143 49.5946 47.4588 49.5946 47.4588C49.5946 47.4588 49.6287 47.4588 49.6797 47.4588C49.7308 47.4588 49.6287 47.431 49.6287 47.431C49.6287 47.431 49.6287 47.3894 49.6287 47.3617C49.6287 47.3339 49.4754 47.32 49.4414 47.3061C49.4073 47.2923 49.3052 47.2506 49.2882 47.2506C49.2711 47.2506 49.186 47.209 49.152 47.1951C49.1179 47.1951 49.0328 47.1674 48.9817 47.1535C48.9477 47.1535 48.6412 46.9592 48.6412 46.9592C48.6412 46.9592 48.6412 46.9315 48.6072 46.8621C48.5731 46.8066 48.4369 46.6123 48.3518 46.5429C48.2667 46.4735 48.1304 46.4597 47.9261 46.4319C47.7218 46.4042 46.1555 46.1821 46.1555 46.1821C46.1555 46.1821 46.0874 46.085 46.0023 46.0017C45.9342 45.9185 45.4234 45.1969 45.3043 45.0303C45.1851 44.8638 44.47 43.8508 44.4189 43.7814C44.3679 43.712 44.2657 43.5316 44.0955 43.3929C43.9252 43.2541 43.7209 43.2402 43.6017 43.2264C43.6017 43.2264 43.6017 43.2125 43.5507 43.2264C43.5507 43.2264 43.4825 43.2264 43.4315 43.2125C43.3634 43.1986 43.2612 43.157 43.2612 43.157C43.2612 43.157 43.3293 40.0208 43.3293 39.8682C43.3293 39.7016 43.3634 36.2047 43.3804 35.9965C43.3804 35.8022 43.3804 31.1813 43.3974 31.0425C43.3974 30.987 43.3974 29.1552 43.3974 28.8499C43.3974 28.5447 43.3974 26.0885 43.3974 26.0052C43.3974 25.9219 43.3974 24.5342 43.3974 24.3677C43.4144 24.3677 43.4826 24.3816 43.4826 24.3816L43.5507 24.6175C43.5507 24.6175 43.5336 25.0061 43.5507 25.2142C43.5507 25.4085 43.5507 25.5889 43.5677 25.7693C43.5847 25.9497 43.6528 26.1856 43.6528 26.2133C43.6528 26.2411 43.6528 26.3382 43.6528 26.3799C43.6528 26.4215 43.6188 26.5325 43.6528 26.6158C43.6869 26.699 43.6869 26.7962 43.755 26.81C43.806 26.8239 43.9082 26.8656 43.9422 26.8794C43.9763 26.8794 44.0103 26.8794 44.0444 26.8794C44.0784 26.8794 44.1636 26.8794 44.1806 26.8794C44.1976 26.8794 44.2317 26.8794 44.2487 26.8794C44.2317 26.9211 44.2146 26.9904 44.2487 27.0876C44.2827 27.1847 44.2487 27.3929 44.2657 27.4761C44.2657 27.5594 44.2657 27.5872 44.3168 27.6288C44.3168 27.6288 44.3168 27.6704 44.3508 27.6982C44.3508 27.6982 44.3168 27.7398 44.2998 27.8231C44.2998 27.9063 44.1976 28.1422 44.1976 28.17C44.1976 28.1977 44.1636 28.2116 44.1295 28.2949C44.0784 28.3781 44.0955 28.4059 44.0274 28.6418C43.9763 28.8777 43.9422 28.9193 43.9422 29.1969C43.9422 29.4605 43.9422 29.7381 43.9422 29.7936C43.9422 29.8491 43.9422 29.8768 43.9422 29.9323C43.9422 29.9878 43.9422 30.1127 43.9422 30.2793C43.9422 30.4458 43.9763 30.5984 44.0274 30.7094C44.0784 30.8343 44.1125 31.0564 44.1125 31.0841C44.1125 31.1119 44.1125 31.1396 44.1125 31.2784C44.1125 31.4033 44.1976 31.4865 44.2146 31.5143V31.6531C44.2487 31.7363 44.2487 31.7502 44.2146 31.9167C44.1976 32.0971 44.2146 32.222 44.2146 32.2775C44.2146 32.333 44.2146 32.3469 44.2146 32.4024C44.2146 32.4579 44.2146 32.6244 44.2487 32.791C44.2487 32.9436 44.3168 33.1795 44.3508 33.3044C44.3849 33.4293 44.4019 33.693 44.4019 33.7485C44.4019 33.804 44.4019 33.9289 44.4019 34.0399C44.4019 34.1509 44.436 34.4701 44.436 34.5394C44.436 34.6088 44.436 34.7199 44.47 34.8586C44.5041 34.9974 44.47 35.0529 44.5041 35.2472C44.5041 35.4414 44.5381 35.5247 44.5551 35.7606C44.5892 35.9965 44.6062 35.9688 44.6232 35.9965C44.6232 36.0104 44.6573 36.1214 44.6913 36.2463C44.7254 36.3712 44.7935 36.3989 44.8105 36.4406C44.8105 36.4822 44.8616 36.6349 44.8786 36.7875C44.8956 36.9401 44.9297 37.2038 44.9127 37.3009C44.9127 37.3981 44.9127 37.5785 44.9297 37.745C44.9297 37.9115 44.9808 38.0364 44.9808 38.0919C44.9808 38.1613 44.9808 38.5221 44.9808 38.6054C44.9808 38.7025 45.0148 39.0772 45.0148 39.1604C45.0148 39.2437 44.8446 39.5074 44.8446 39.66C44.8446 39.8127 44.8956 39.9375 44.9637 40.1457C45.0318 40.3538 45.2191 40.9228 45.2191 40.9644C45.2191 41.0061 45.3724 41.4918 45.4234 41.6721C45.4745 41.8387 45.4915 41.9219 45.4745 41.9774C45.4745 42.0329 45.3894 42.3799 45.4064 42.5186C45.4234 42.6574 45.6107 42.8933 45.6277 42.9072C45.6448 42.9349 45.6448 42.9349 45.6618 42.9766C45.6788 43.0182 45.781 43.2125 45.798 43.268C45.815 43.3235 45.815 43.3235 45.8491 43.3374C45.8491 43.4068 45.9512 43.7537 45.9512 43.7537C45.9512 43.7537 45.9172 43.7953 45.9001 43.8369C45.9001 43.8924 45.9001 43.9063 45.9342 43.9063C45.9342 43.9063 45.9342 43.9341 45.9342 43.9618C45.9342 43.9896 45.9342 44.0035 46.0023 44.0867C46.0023 44.1006 46.0023 44.1839 46.0023 44.1977C46.0023 44.2116 46.0023 44.281 46.0193 44.3365C46.0193 44.392 46.0193 44.5169 46.1044 44.6002C46.1044 44.6279 46.1044 44.6834 46.1044 44.6834C46.1044 44.6834 46.1044 44.7112 46.0704 44.7806C46.0704 44.8499 46.0534 44.8638 46.0704 44.8777C46.0704 44.9055 46.0534 44.9193 46.0704 44.961C46.0874 45.0026 46.1215 45.0165 46.1896 45.0026C46.1896 45.0303 46.1896 45.0303 46.2066 45.0581C46.2066 45.0581 46.2747 45.1136 46.2917 45.1136C46.3087 45.1136 46.3939 45.1136 46.4279 45.0997C46.462 45.0859 46.7003 45.0997 46.7344 45.0997C46.7684 45.0997 46.8536 45.0997 46.9046 45.0997C46.9046 45.0997 46.9387 45.0997 46.9557 45.0997C46.9557 45.0997 47.0749 45.0997 47.126 45.0859C47.126 45.0859 47.2451 45.0859 47.2962 45.0859C47.2962 45.0859 47.3813 45.0859 47.4154 45.0859C47.4494 45.0859 47.5005 45.072 47.5005 45.072C47.5005 45.072 47.5686 45.072 47.6027 45.072C47.6367 45.072 47.6537 45.072 47.6708 45.0581C47.6708 45.0442 47.7048 45.0581 47.7559 45.0442C47.7559 45.0442 47.7729 45.072 47.807 45.0581C47.841 45.0442 47.9261 45.0303 47.9772 45.0165C48.0283 45.0165 48.0453 45.0026 48.0623 44.9748C48.0623 44.9748 48.0964 44.9748 48.1304 44.9748C48.1645 44.9748 48.2837 44.9332 48.3518 44.9193C48.4199 44.9055 48.505 44.8777 48.5391 44.8638C48.5731 44.8499 48.5731 44.8638 48.5561 44.8222C48.5561 44.7944 48.522 44.7251 48.488 44.6973C48.488 44.6973 48.488 44.3643 48.4199 44.3226C48.4199 44.3226 48.3858 44.1977 48.3518 44.1283C48.3177 44.0451 48.2667 43.8786 48.2326 43.8231C48.2326 43.8231 48.2326 43.7676 48.1985 43.7676C48.1985 43.7676 48.1645 43.712 48.1645 43.6982C48.1645 43.6843 48.1134 43.5733 48.0794 43.5039C48.0794 43.4761 48.0794 43.4484 48.0453 43.3929C48.0453 43.3929 48.0794 43.3929 48.0794 43.3512C48.0794 43.3235 48.1134 43.2819 48.1304 43.1986C48.1645 43.1153 48.1815 43.1153 48.2326 43.0182C48.2837 42.9211 48.2837 42.8794 48.3007 42.6158C48.3177 42.3521 48.2496 42.0885 48.2326 41.9081C48.2156 41.7277 48.1815 41.6166 48.1475 41.5334C48.1134 41.4501 47.9942 41.2142 47.9602 41.1448C47.9261 41.0616 47.8921 41.0477 47.9091 40.895C47.9261 40.7424 47.9942 40.5342 48.0283 40.34C48.0623 40.1457 48.0623 40.0486 48.0623 39.9653C48.0623 39.882 47.9772 39.7849 47.9772 39.7849C47.9772 39.7849 47.9772 39.5767 47.9432 39.3963C47.9261 39.2576 47.8921 39.1327 47.8921 39.0911C47.8921 39.0217 47.841 38.8274 47.841 38.758C47.841 38.6886 47.7899 38.3972 47.7729 38.3833C47.7559 38.3695 47.7729 38.1613 47.7729 38.1197C47.7729 38.0919 47.7729 38.0364 47.7729 37.8976C47.7729 37.8144 47.7729 37.6479 47.7729 37.5091C47.7729 37.4258 47.7729 37.3287 47.7729 37.3287C47.7729 37.3148 47.7729 37.0095 47.7729 36.9124C47.7729 36.8153 47.7899 36.6904 47.7729 36.5516C47.7729 36.4128 47.7048 36.2047 47.7048 36.1908C47.7048 36.1353 47.6537 35.941 47.6537 35.9133C47.6537 35.8855 47.6537 35.8439 47.6708 35.8022C47.6708 35.7606 47.7559 35.5802 47.7559 35.5525C47.7559 35.5108 47.824 35.1778 47.824 35.1639C47.824 35.15 47.9091 34.8725 47.9261 34.817C47.9261 34.7615 47.9772 34.5394 48.0113 34.4423C48.0453 34.3452 48.0794 34.0676 48.0794 34.026C48.0794 33.9844 48.1134 33.7207 48.1304 33.7068C48.1304 33.693 48.1645 33.3877 48.1815 33.3599C48.1815 33.3183 48.2326 33.1934 48.2326 33.1101C48.2326 33.0269 48.2667 32.8048 48.2837 32.8048C48.3688 32.9436 48.4029 33.1656 48.4199 33.235C48.4369 33.3044 48.505 33.6652 48.5561 33.804C48.5901 33.9427 48.7093 34.2342 48.7434 34.3035C48.7434 34.3313 48.7774 34.4146 48.8115 34.5533C48.8625 34.6921 48.8966 34.8031 48.8966 34.8031C48.8966 34.8031 48.8796 34.8586 48.8625 34.928C48.8625 34.9974 48.8625 35.1223 48.8625 35.1917C48.8796 35.261 48.9477 35.4692 48.9647 35.5525C48.9817 35.6357 49.0158 35.8022 49.0328 35.9965C49.0328 36.1908 49.0839 36.3989 49.1009 36.5516C49.1179 36.6904 49.1349 36.7875 49.186 36.954C49.2371 37.1205 49.2882 37.2454 49.3392 37.3426C49.4073 37.4397 49.5435 37.634 49.5435 37.6479C49.5435 37.6617 49.5435 37.6895 49.5776 37.7866C49.5946 37.8838 49.6287 38.0503 49.6287 38.078C49.6287 38.1058 49.6287 38.2168 49.5776 38.3278C49.5435 38.4388 49.4754 38.5637 49.4414 38.647C49.4073 38.7303 49.3563 38.8413 49.3392 38.9384C49.3392 39.0494 49.3392 39.1188 49.3903 39.2576C49.4414 39.3963 49.4584 39.6878 49.5095 39.8543C49.5606 40.0208 49.5606 40.2428 49.5946 40.3816C49.6287 40.5204 49.6457 40.5898 49.6968 40.6869C49.7479 40.784 49.816 40.9089 49.9011 41.0199C49.9862 41.131 50.1394 41.4085 50.1905 41.4501C50.2416 41.4918 50.2927 41.6166 50.2927 41.6444C50.2927 41.6721 50.2927 41.6721 50.2927 41.7693C50.2927 41.8664 50.3267 41.9774 50.3437 42.0052C50.3437 42.0329 50.3948 42.1162 50.4118 42.1578C50.4118 42.1995 50.4459 42.2966 50.497 42.366C50.548 42.4354 50.6332 42.5048 50.6332 42.5048C50.6332 42.5048 50.6332 42.5464 50.6332 42.6296C50.6332 42.7129 50.6502 42.7268 50.6502 42.7407L50.6672 42.8378C50.6672 42.8378 50.6502 42.9072 50.6332 42.9211C50.6332 42.9211 50.6332 42.9488 50.6332 42.9766C50.6332 43.0182 50.6502 43.0598 50.6672 43.0737H50.7183V43.1292C50.7353 43.1292 50.8034 43.1986 50.8375 43.1986C50.8715 43.1986 50.9737 43.157 50.9737 43.157C50.9737 43.157 50.9737 43.1847 50.9737 43.2125C50.9737 43.2264 50.9737 43.2541 50.9907 43.268C51.0077 43.2819 51.178 43.3096 51.195 43.3235C51.212 43.3235 51.2461 43.3235 51.3312 43.2819C51.3312 43.3235 51.3653 43.3651 51.3823 43.3651C51.3993 43.3651 51.5525 43.4068 51.5866 43.3929C51.6206 43.379 51.6717 43.3651 51.7058 43.3512C51.7398 43.3374 51.7398 43.3096 51.7568 43.3096C51.7568 43.3096 51.8249 43.2957 51.842 43.2957L51.893 43.3512C51.893 43.3512 51.9441 43.379 51.9441 43.3929C51.9441 43.3929 51.9952 43.4623 52.0122 43.4761L52.0803 43.601C52.0803 43.601 52.0633 43.6565 52.0633 43.6843C52.0633 43.712 52.0633 43.7814 52.0973 43.7953C52.1314 43.8092 52.1484 43.7953 52.1484 43.7953C52.1484 43.7953 52.1314 43.8369 52.1484 43.8647C52.1654 43.8924 52.1825 43.9202 52.1825 43.9202C52.1825 43.9202 52.2846 43.9063 52.2846 43.9202C52.2846 43.9341 52.2846 43.9757 52.2846 43.9896C52.2846 44.0035 52.3187 44.0312 52.3357 44.0312C52.3527 44.0312 52.5059 44.0173 52.5059 44.0173C52.5059 44.0173 52.5059 44.0728 52.5059 44.0867C52.5059 44.1006 52.557 44.1145 52.5911 44.1145C52.6251 44.1145 52.7613 44.0867 52.7613 44.0867C52.7613 44.0867 52.7613 44.1145 52.7954 44.1145C52.8124 44.1145 52.8975 44.1145 52.9656 44.1145C53.0167 44.1145 53.5615 44.0451 53.6466 44.0451C53.7318 44.0451 53.868 43.9896 53.919 43.9896C53.9701 43.9896 54.1063 43.948 54.1233 43.9341C54.1404 43.9202 54.1233 43.9063 54.1574 43.9063C54.1744 43.9063 54.2085 43.9063 54.2255 43.9063C54.2595 43.9063 54.5149 43.8092 54.549 43.7953C54.583 43.7814 54.583 43.7676 54.6171 43.7537C54.6511 43.7398 54.6511 43.7398 54.6511 43.712C54.6511 43.6843 54.6341 43.6427 54.583 43.5733C54.583 43.5733 54.583 43.4623 54.5149 43.4345C54.5149 43.4345 54.4979 43.3096 54.4468 43.1708C54.3957 43.0321 54.2936 42.9488 54.2595 42.9072C54.1914 42.8378 54.1574 42.8378 54.1404 42.8239C54.1404 42.8239 54.0723 42.7407 54.0382 42.7407C54.0382 42.7407 54.0382 42.6852 53.9871 42.6852C53.9531 42.6435 53.8339 42.588 53.7147 42.5048C53.5956 42.4215 53.5615 42.4076 53.5445 42.3799C53.5275 42.3521 53.3232 42.1856 53.2551 42.144C53.2721 42.144 53.2551 42.0885 53.2551 42.0329C53.2551 41.9774 53.221 41.8109 53.221 41.7554C53.221 41.6999 53.221 41.6721 53.187 41.6305C53.187 41.5889 53.1699 41.464 53.187 41.3807C53.187 41.2836 53.187 41.1587 53.1529 41.1032C53.1189 41.0477 53.0848 40.9506 53.0678 40.895C53.0508 40.8395 52.9316 40.7702 52.9316 40.7702C52.9316 40.7702 52.8294 40.6314 52.7613 40.5065C52.6932 40.3816 52.4549 40.0902 52.3697 39.9792C52.4038 39.9098 52.4378 39.8127 52.4549 39.7571C52.4549 39.7155 52.557 39.3963 52.6081 39.1882C52.6592 38.98 52.7273 38.8551 52.7443 38.8135C52.7613 38.7719 52.8464 38.758 52.9146 38.6192C52.9827 38.4805 52.9656 38.425 52.9656 38.2584C52.9656 38.0919 52.9827 37.8838 52.9997 37.7866C52.9997 37.6895 52.9486 37.6062 52.9316 37.5507C52.8975 37.4952 52.8635 37.412 52.8635 37.3981C52.8635 37.3703 52.8635 37.3703 52.8465 37.3009C52.8124 37.1761 52.7783 37.1205 52.7783 37.1067C52.7783 37.0928 52.7613 37.0789 52.7273 36.8985C52.6932 36.732 52.523 36.4128 52.523 36.4128C52.523 36.4128 52.523 35.941 52.5059 35.6774C52.5059 35.4137 52.4378 35.3304 52.4378 35.3027C52.4378 35.2749 52.4208 35.261 52.3868 35.0113C52.3527 34.7615 52.3527 34.6505 52.3527 34.6227C52.3527 34.595 52.3527 34.5533 52.3527 34.5394C52.3527 34.5394 52.3527 34.5117 52.3357 34.4701C52.3187 34.4284 52.2846 34.1925 52.2846 34.1925C52.2846 34.1925 52.2846 34.0399 52.2676 33.8734C52.2676 33.7068 52.2165 33.5264 52.2165 33.4987C52.2165 33.4571 52.2676 32.9991 52.2676 32.8187C52.2676 32.6383 52.2676 32.6244 52.2846 32.4579C52.2846 32.2914 52.2846 32.0277 52.2846 31.9306C52.2846 31.8335 52.2846 31.6531 52.2676 31.6114C52.2676 31.5698 52.2676 31.4033 52.2506 31.3478C52.2335 31.2923 52.2506 31.1674 52.2506 31.0841C52.2506 31.0147 52.2506 30.8343 52.2165 30.7927C52.2165 30.7511 52.2165 30.6678 52.2165 30.4874C52.2165 30.307 52.1484 30.1266 52.1314 30.0989C52.1314 30.0711 52.1144 30.0295 52.0973 29.9046C52.0633 29.627 52.0463 29.5438 52.0122 29.4466C51.9782 29.3495 51.9782 29.2663 51.9782 29.2663C51.9782 29.2663 51.9952 29.1691 51.9952 29.0581C51.9952 28.9887 51.9952 28.8916 51.9952 28.8499C51.9782 28.7389 51.9952 28.7806 51.9441 28.5585C51.876 28.3365 51.7739 28.1561 51.7739 28.1561C51.7739 28.1561 51.8249 28.1006 51.842 28.1006C51.859 28.1006 51.842 28.1006 51.9101 28.0867C51.9952 28.059 52.0292 28.0173 52.0292 27.9757C52.0292 27.948 52.0292 27.8786 52.0803 27.8508C52.1484 27.8092 52.1484 27.8508 52.1654 27.8369C52.1995 27.8231 52.1825 27.7953 52.2335 27.7814C52.2676 27.7676 52.2676 27.7814 52.2846 27.7814C52.3016 27.7814 52.3357 27.7814 52.3697 27.7676C52.4038 27.7676 52.4038 27.7676 52.4208 27.7676C52.4378 27.7676 52.4549 27.7676 52.4889 27.7676C52.5059 27.7676 52.5911 27.7676 52.7273 27.7537C52.8635 27.7259 52.9997 27.6427 53.0678 27.5733C53.1359 27.5039 53.221 27.3651 53.2891 27.2402C53.3572 27.2125 53.3742 27.1986 53.4253 27.1015C53.4594 27.0043 53.4764 26.9072 53.4253 26.81C53.4594 26.7545 53.4934 26.5048 53.5104 26.3382C53.5445 26.1578 53.6637 25.8664 53.7318 25.6166C53.8169 25.3669 53.902 24.8395 53.885 24.7702C53.868 24.7008 53.885 24.2012 53.885 23.9931C53.868 23.7433 53.7658 23.5351 53.6466 23.2576C53.5275 22.98 53.4594 22.9107 53.4594 22.9107C53.4594 22.9107 53.4594 22.8968 53.4423 22.869C53.4423 22.8413 53.4253 22.8135 53.4083 22.7441C53.4083 22.6747 53.3232 22.6054 53.2891 22.5776C53.2891 22.4944 53.204 22.425 53.187 22.4111C53.1529 22.3833 53.0337 22.2168 53.0167 22.1752C52.9997 22.1474 52.7102 21.8421 52.6932 21.8144C52.6762 21.7866 52.6251 21.6895 52.5059 21.5369C52.4038 21.3842 52.2165 21.1622 52.1144 21.0512C52.0803 20.954 51.9782 20.843 51.9611 20.8153C51.9441 20.7875 51.9101 20.7459 51.893 20.7042C51.876 20.6626 51.8249 20.6487 51.7228 20.51C51.6206 20.3712 51.5355 20.3018 51.5015 20.2602C51.4674 20.2324 51.4674 20.2047 51.4504 20.1353C51.4504 20.0659 51.3312 20.0382 51.3142 20.0243C51.2971 20.0243 51.2631 20.0243 51.212 19.9549C51.1609 19.8994 51.178 19.8855 51.1269 19.7606C51.0758 19.6357 50.9907 19.5941 50.9226 19.5802C50.8545 19.5802 50.8034 19.5941 50.8034 19.5941C50.8034 19.5941 50.548 19.5525 50.531 19.5386C50.514 19.5386 50.4629 19.497 50.4289 19.4831C50.3948 19.4692 50.2756 19.4276 50.1735 19.3859C50.0713 19.3443 49.867 19.3027 49.816 19.2888C49.7649 19.2888 49.7138 19.2749 49.5606 19.2055C49.4073 19.15 49.2541 19.1084 49.152 19.0945C49.0498 19.0668 48.9477 19.039 48.8455 19.0113C48.7604 18.9696 48.6582 18.9419 48.5731 18.9141C48.488 18.8864 48.2667 18.8447 48.2667 18.8447C48.2667 18.8447 48.1645 18.7615 48.1304 18.7337C48.0964 18.706 47.9942 18.6366 47.9772 18.6227C47.9602 18.6088 47.9772 18.595 47.9432 18.5256C47.9261 18.4562 47.7899 18.3591 47.7899 18.3591L47.7559 17.8179C47.7559 17.8179 47.824 17.7207 47.858 17.6097C47.8921 17.5126 47.9091 17.4154 47.9091 17.346C47.9432 17.346 48.0283 17.346 48.0794 17.3044C48.1304 17.2628 48.1304 17.2212 48.1304 17.2073C48.1304 17.1934 48.2496 17.0408 48.2667 16.9991C48.2667 16.9436 48.3177 16.791 48.3177 16.7216C48.3177 16.6522 48.3348 16.4718 48.3177 16.4302C48.3007 16.3885 48.2667 16.333 48.2156 16.333C48.1475 16.333 48.1134 16.3608 48.1134 16.3608C48.1134 16.3608 48.1134 16.3192 48.1134 16.3053C48.1134 16.2914 48.1134 16.2636 48.1304 16.2359C48.1304 16.2081 48.1475 16.111 48.1475 16.0694C48.1645 16.0277 48.1475 16 48.1475 16C48.1475 16 48.2667 15.9445 48.3348 15.8751C48.4199 15.778 48.4029 15.6808 48.3688 15.5698C48.3348 15.4588 48.1304 15.2784 48.1304 15.2784C48.1304 15.2784 48.1304 15.2368 48.1304 15.1396C48.1304 15.0425 48.0964 14.9176 48.0283 14.7788C47.9602 14.6539 47.9091 14.6539 47.807 14.5707C47.7048 14.5013 47.4665 14.3486 47.3984 14.3209C47.3984 14.3209 47.2962 14.2515 47.2451 14.2515C47.0579 14.1544 46.8876 14.1127 46.8706 14.0989C46.8365 14.0989 46.7514 14.0711 46.6833 14.0711C46.6833 14.0711 46.6322 14.0572 46.496 14.0711C46.3598 14.0711 46.0363 14.1405 46.0363 14.1405C46.0363 14.1405 46.0023 14.1405 45.9342 14.1405C45.8831 14.1544 45.8661 14.1821 45.8491 14.1821C45.8491 14.1821 45.4064 14.307 45.3724 14.3209C45.3553 14.3209 45.2021 14.3764 45.117 14.4597C45.0318 14.5429 44.9978 14.6401 44.9637 14.7094C44.9297 14.7788 44.8956 14.8066 44.8105 14.987C44.7254 15.1535 44.7084 15.2229 44.6743 15.3894C44.6403 15.5421 44.6573 15.7918 44.6403 15.8196C44.6403 15.8473 44.6403 15.9584 44.6403 16.0139C44.6403 16.0694 44.6743 16.222 44.6743 16.222C44.6743 16.222 44.6062 16.222 44.5722 16.3053C44.5381 16.3747 44.5551 16.444 44.5722 16.4996C44.5892 16.5551 44.5722 16.6244 44.6062 16.7771C44.6232 16.9436 44.6913 17.0269 44.7254 17.0824C44.7594 17.1379 44.7765 17.1795 44.8275 17.235C44.8786 17.2905 45.0148 17.2767 45.0489 17.2767C45.0829 17.2767 45.0999 17.2767 45.0999 17.2767C45.0999 17.2767 45.134 17.4293 45.151 17.5681C45.1681 17.7068 45.2532 18.3452 45.2532 18.3452C45.2532 18.3452 45.0829 18.3452 44.9978 18.3868C44.9297 18.4146 44.8956 18.5395 44.8956 18.5533C44.8956 18.5672 44.8786 18.6366 44.8446 18.6643C44.8105 18.6921 44.7765 18.7754 44.7594 18.8031C44.7594 18.8309 44.6232 19.0529 44.6232 19.1639C44.6232 19.1639 44.47 19.2194 44.4189 19.2472C44.3679 19.2749 44.2827 19.3166 44.2657 19.3304C44.2487 19.3304 44.1295 19.3998 44.0955 19.4137C44.0614 19.4276 43.9933 19.4831 43.9593 19.4831C43.9422 19.4831 43.9082 19.5108 43.8231 19.5386C43.7379 19.5663 43.5336 19.6635 43.5336 19.6635L42.9207 19.9549L42.7675 19.9688ZM42.5802 44.7389C42.5802 44.7389 42.461 44.7806 42.461 44.8083C42.461 44.8499 42.4781 44.8777 42.5291 44.8916C42.5291 44.9748 42.5291 45.1552 42.5291 45.183C42.5291 45.2107 42.461 45.6132 42.444 45.6409C42.444 45.6687 42.41 45.7242 42.41 45.7242L39.9583 45.3911C39.9583 45.3911 40.0434 45.294 40.2137 45.1136C40.384 44.9471 41.1671 44.1283 41.2182 44.0728C41.2693 44.0173 41.6268 43.6565 41.6608 43.6149C41.6949 43.5872 41.8481 43.379 42.0354 43.379C42.1035 43.379 42.2908 43.4068 42.2908 43.4068C42.3419 43.4206 42.3759 43.4068 42.3759 43.4068C42.3759 43.4068 42.444 43.4068 42.4781 43.4206C42.5121 43.4345 42.5972 43.49 42.5972 43.49L42.5632 44.7251L42.5802 44.7389ZM43.5166 43.5594L43.5677 43.5316C43.5677 43.5316 43.772 43.5455 43.8741 43.6149C43.9933 43.6982 44.0444 43.7953 44.1465 43.9341C44.2487 44.0728 44.5722 44.5308 44.6232 44.5863C44.6573 44.6279 45.1851 45.3773 45.5256 45.8491C45.6788 46.0572 45.7639 46.196 45.7639 46.196L43.2101 45.8352C43.2101 45.8352 43.1931 45.5438 43.1591 45.4328C43.125 45.3218 43.2101 44.8916 43.2101 44.8916C43.2101 44.8916 43.2612 44.8638 43.2782 44.8222C43.2782 44.7667 43.2101 44.7389 43.1761 44.7389C43.1761 44.6695 43.1931 44.5447 43.2101 44.4753C43.2272 44.4059 43.2272 43.5178 43.2272 43.5178C43.2272 43.5178 43.4315 43.5178 43.5336 43.5455L43.5166 43.5594ZM51.5185 27.8231V27.8508C51.4844 27.8231 51.4844 27.8092 51.5015 27.7814C51.5015 27.7537 51.6036 27.6843 51.6036 27.6843L51.6377 27.712C51.6377 27.712 51.5355 27.8092 51.5355 27.8231H51.5185ZM52.1314 24.3816C52.1314 24.3816 52.0973 24.4926 52.0803 24.673C52.0463 24.8534 52.0463 24.9644 52.0463 25.131C52.0463 25.2836 52.0803 25.4224 52.0973 25.6166C52.1314 25.8109 52.1314 25.8248 52.1314 25.9497C52.1314 26.0885 52.1314 26.2272 52.1144 26.3244C52.1144 26.4076 52.0803 26.4909 52.0803 26.4909C52.0803 26.4909 52.0122 26.5325 51.9952 26.5603C51.9952 26.588 51.9782 26.6019 51.9611 26.6435C51.9611 26.6852 51.9611 26.699 51.9611 26.7129C51.9611 26.7129 51.9611 26.7407 51.9271 26.7407C51.893 26.7407 51.876 26.7407 51.8079 26.7129C51.7398 26.6852 51.6887 26.6713 51.5866 26.6574C51.4844 26.6574 51.4163 26.6435 51.3993 26.6435C51.3823 26.6435 51.2801 26.588 51.212 26.5603C51.1439 26.5325 51.0418 26.4493 51.0077 26.3799C51.0588 26.3382 51.195 26.255 51.229 26.2411C51.2631 26.2272 51.2971 26.1717 51.3142 26.1162C51.3142 26.0746 51.3142 26.0468 51.2801 25.9913C51.2461 25.9358 51.195 25.9081 51.178 25.8664C51.178 25.8387 51.1439 25.8248 51.1439 25.8109C51.1439 25.797 51.1439 25.7693 51.1269 25.7554C51.1269 25.7415 51.1269 25.6305 51.0928 25.5611C51.0588 25.4917 51.0588 25.4501 51.0247 25.3946C50.9907 25.3113 50.9566 25.242 50.9226 25.2003C50.8885 25.1726 50.8204 25.0616 50.8204 25.0616C50.8204 25.0616 50.7864 24.9506 50.7353 24.8673C50.7013 24.784 50.7013 24.7424 50.6502 24.673C50.5991 24.6036 50.5651 24.5759 50.531 24.5342C50.514 24.4926 50.4459 24.3955 50.4118 24.34C50.4118 24.3261 50.3608 24.0902 50.3437 24.0208C50.3437 23.9375 50.2756 23.7571 50.2756 23.7155C50.2756 23.6739 50.2756 23.5767 50.2756 23.5074C50.2756 23.438 50.1565 23.1466 50.1565 23.1466C50.1565 23.1466 50.2416 22.9662 50.2586 22.9384C50.2586 22.9107 50.2586 22.8551 50.2586 22.8551L50.3097 22.8274C50.3097 22.8274 50.4118 22.7996 50.4629 22.8135C50.514 22.8135 50.5821 22.869 50.5991 22.8551C50.6161 22.8413 50.6502 22.8551 50.6672 22.869C50.6842 22.869 50.7353 22.869 50.7353 22.869C50.7353 22.869 50.7694 22.869 50.9056 22.9523C51.0418 23.0217 51.1609 23.0911 51.195 23.1188C51.229 23.1604 51.229 23.1188 51.3312 23.2021C51.4334 23.2715 51.5866 23.3825 51.5866 23.3963C51.5866 23.4241 51.5866 23.438 51.6547 23.4796C51.7058 23.5212 51.7909 23.6045 51.8079 23.6184C51.8079 23.6323 51.876 23.7016 51.9101 23.7155C51.9441 23.7294 51.9782 23.7433 51.9782 23.7433C51.9782 23.7433 52.0633 23.8265 52.1144 24.0347C52.1654 24.2428 52.1484 24.3538 52.1314 24.3955V24.3816Z" fill="#00539F"/>
<path d="M52.7103 21.3979H48.0283V24.5896H52.7103V21.3979Z" fill="#00539F"/>
</g>
</g>
<defs>
<clipPath id="clip0_1174_629">
<rect width="72.5106" height="48" fill="white"/>
</clipPath>
</defs>
</svg>
