<svg width="49" height="48" viewBox="0 0 49 48" fill="none" xmlns="http://www.w3.org/2000/svg">
<path d="M24.5008 10.95L16.0508 1.04004" stroke="#8DC63F" stroke-miterlimit="10" stroke-linecap="round"/>
<path d="M27.2012 11.2701L35.0512 4.70007" stroke="#8DC63F" stroke-miterlimit="10" stroke-linecap="round"/>
<path d="M20.5303 11.49L12.0703 13.7V30.68L20.5303 30.35L36.9303 30.7V14.93L20.5303 11.49Z" fill="white"/>
<path d="M20.6903 31.14V12.29L12.0703 13.7V30.68" fill="#A5D3EE"/>
<path d="M29.0408 12.7101C28.9608 10.8901 27.4608 9.44006 25.6208 9.44006C24.2708 9.44006 23.1108 10.2201 22.5508 11.3501L29.0408 12.7101Z" fill="#8DC63F"/>
<path d="M20.5303 11.49L12.0703 13.7V30.68L20.5303 30.35L36.9303 30.7V14.93L20.5303 11.49Z" stroke="#00579F" stroke-width="2.5" stroke-miterlimit="10" stroke-linecap="round" stroke-linejoin="round"/>
<path d="M20.6895 12.29V31.14" stroke="#00579F" stroke-miterlimit="10" stroke-linecap="round" stroke-linejoin="round"/>
<path d="M14.3899 31.5L13.6899 44.29C13.6799 44.5 13.8299 44.68 14.0399 44.7C14.0499 44.7 14.0599 44.7 14.0699 44.7C14.2599 44.7 14.4299 44.55 14.4499 44.36L15.9199 31.5H14.3899Z" fill="#00579F" stroke="#00579F" stroke-width="0.5" stroke-miterlimit="10"/>
<path d="M21.8505 31.5L21.8305 31.87V31.5H21.0605V46.66C21.0605 46.87 21.2305 47.04 21.4405 47.05H21.4505C21.6505 47.05 21.8205 46.89 21.8305 46.68L22.6205 31.5H21.8505Z" fill="#00579F" stroke="#00579F" stroke-width="0.5" stroke-miterlimit="10"/>
<path d="M27.4004 31.5L28.1404 42.56C28.1504 42.76 28.3204 42.92 28.5204 42.92C28.5304 42.92 28.5304 42.92 28.5404 42.92C28.7504 42.91 28.9104 42.73 28.9104 42.52L28.6304 31.5H27.4004Z" fill="#00579F" stroke="#00579F" stroke-width="0.5" stroke-miterlimit="10"/>
<path d="M32.7695 31.5L34.6195 44.41C34.6495 44.6 34.8095 44.74 34.9995 44.74C35.0195 44.74 35.0295 44.74 35.0495 44.74C35.2595 44.72 35.4095 44.53 35.3895 44.32L34.2395 31.5H32.7695Z" fill="#00579F" stroke="#00579F" stroke-width="0.5" stroke-miterlimit="10"/>
<path d="M32.1897 17.04C31.0497 16.65 29.0497 16.21 25.9397 16.22C24.6997 16.22 23.6697 17.18 23.5697 18.42C23.4597 19.8 23.3797 21.79 23.5297 24.23C23.5897 25.18 24.1997 26.01 25.0897 26.33C26.7097 26.92 29.4497 27.67 31.9497 27.22C32.9397 27.04 33.7197 26.26 33.8897 25.26C34.1397 23.8 34.3497 21.41 33.7597 18.77C33.5797 17.97 32.9797 17.31 32.1897 17.04Z" fill="#A5D3EE"/>
<path d="M26.1211 27.75C26.1611 27.47 26.4611 25.39 26.4911 25.17L26.6611 25.06L28.8411 23.57L28.7711 23.94L28.0811 21.9L29.3211 23.66L29.4311 23.81C29.3911 23.87 27.6911 25.94 27.5811 26.07L27.8011 25.57L28.1211 27.76C28.1211 27.75 26.1211 27.75 26.1211 27.75Z" fill="white"/>
</svg>
